%TF.GenerationSoftware,KiCad,Pcbnew,6.0.5-a6ca702e91~116~ubuntu20.04.1*%
%TF.CreationDate,2022-05-15T13:38:05+02:00*%
%TF.ProjectId,disco-board-pcb,64697363-6f2d-4626-9f61-72642d706362,rev?*%
%TF.SameCoordinates,Original*%
%TF.FileFunction,Soldermask,Top*%
%TF.FilePolarity,Negative*%
%FSLAX46Y46*%
G04 Gerber Fmt 4.6, Leading zero omitted, Abs format (unit mm)*
G04 Created by KiCad (PCBNEW 6.0.5-a6ca702e91~116~ubuntu20.04.1) date 2022-05-15 13:38:05*
%MOMM*%
%LPD*%
G01*
G04 APERTURE LIST*
%ADD10O,1.700000X1.700000*%
%ADD11C,3.200000*%
%ADD12R,3.500000X3.500000*%
%ADD13C,3.500000*%
%ADD14R,1.700000X1.700000*%
G04 APERTURE END LIST*
D10*
%TO.C,TP41*%
X113400000Y-83400000D03*
%TD*%
%TO.C,TP108*%
X151500000Y-111300000D03*
%TD*%
%TO.C,TP24*%
X110200000Y-119000000D03*
%TD*%
%TO.C,TP25*%
X110200000Y-121500000D03*
%TD*%
%TO.C,TP7*%
X110200000Y-75800000D03*
%TD*%
%TO.C,TP88*%
X148400000Y-134200000D03*
%TD*%
%TO.C,TP45*%
X113400000Y-98700000D03*
%TD*%
%TO.C,TP123*%
X148400000Y-73300000D03*
%TD*%
%TO.C,TP43*%
X113400000Y-91000000D03*
%TD*%
%TO.C,TP2*%
X110200000Y-63100000D03*
%TD*%
%TO.C,TP77*%
X148400000Y-106300000D03*
%TD*%
%TO.C,TP32*%
X113400000Y-60400000D03*
%TD*%
%TO.C,TP48*%
X113400000Y-106300000D03*
%TD*%
%TO.C,TP20*%
X110200000Y-108800000D03*
%TD*%
%TO.C,TP10*%
X110200000Y-83400000D03*
%TD*%
%TO.C,TP22*%
X110200000Y-113900000D03*
%TD*%
%TO.C,TP29*%
X110200000Y-131700000D03*
%TD*%
%TO.C,TP15*%
X110200000Y-96100000D03*
%TD*%
%TO.C,TP74*%
X148400000Y-98600000D03*
%TD*%
%TO.C,TP121*%
X151500000Y-73300000D03*
%TD*%
%TO.C,TP57*%
X113400000Y-129100000D03*
%TD*%
%TO.C,TP14*%
X110200000Y-93600000D03*
%TD*%
%TO.C,TP73*%
X148400000Y-93600000D03*
%TD*%
%TO.C,TP18*%
X110200000Y-103700000D03*
%TD*%
%TO.C,TP3*%
X110200000Y-65600000D03*
%TD*%
%TO.C,TP70*%
X148400000Y-86000000D03*
%TD*%
%TO.C,TP12*%
X110200000Y-88500000D03*
%TD*%
%TO.C,TP114*%
X151500000Y-126600000D03*
%TD*%
%TO.C,TP23*%
X110200000Y-116400000D03*
%TD*%
%TO.C,TP52*%
X113400000Y-116400000D03*
%TD*%
%TO.C,TP35*%
X113400000Y-68200000D03*
%TD*%
%TO.C,TP71*%
X148400000Y-88700000D03*
%TD*%
%TO.C,TP113*%
X151500000Y-124100000D03*
%TD*%
%TO.C,TP85*%
X148400000Y-126600000D03*
%TD*%
%TO.C,TP21*%
X110200000Y-111400000D03*
%TD*%
%TO.C,TP33*%
X113400000Y-63100000D03*
%TD*%
%TO.C,TP53*%
X113400000Y-119000000D03*
%TD*%
%TO.C,TP122*%
X148400000Y-139300000D03*
%TD*%
%TO.C,TP31*%
X110200000Y-136800000D03*
%TD*%
%TO.C,TP109*%
X151500000Y-113900000D03*
%TD*%
%TO.C,TP99*%
X151500000Y-86000000D03*
%TD*%
%TO.C,TP47*%
X113400000Y-103700000D03*
%TD*%
%TO.C,TP98*%
X151500000Y-83400000D03*
%TD*%
%TO.C,TP59*%
X113400000Y-134200000D03*
%TD*%
%TO.C,TP107*%
X151500000Y-108800000D03*
%TD*%
%TO.C,TP72*%
X148400000Y-91200000D03*
%TD*%
%TO.C,TP34*%
X113400000Y-65600000D03*
%TD*%
%TO.C,TP65*%
X148400000Y-70700000D03*
%TD*%
%TO.C,TP8*%
X110200000Y-78300000D03*
%TD*%
%TO.C,TP94*%
X151500000Y-70700000D03*
%TD*%
%TO.C,TP78*%
X148400000Y-108800000D03*
%TD*%
%TO.C,TP80*%
X148400000Y-113900000D03*
%TD*%
%TO.C,TP68*%
X148400000Y-80900000D03*
%TD*%
%TO.C,TP19*%
X110200000Y-106300000D03*
%TD*%
%TO.C,TP75*%
X148400000Y-101200000D03*
%TD*%
%TO.C,TP119*%
X113400000Y-96100000D03*
%TD*%
%TO.C,TP38*%
X113400000Y-75800000D03*
%TD*%
%TO.C,TP105*%
X151500000Y-103800000D03*
%TD*%
%TO.C,TP67*%
X148400000Y-78400000D03*
%TD*%
%TO.C,TP62*%
X148400000Y-63000000D03*
%TD*%
%TO.C,TP66*%
X148400000Y-75800000D03*
%TD*%
%TO.C,TP79*%
X148400000Y-111300000D03*
%TD*%
%TO.C,TP86*%
X148400000Y-129100000D03*
%TD*%
%TO.C,TP125*%
X148400000Y-96100000D03*
%TD*%
%TO.C,TP124*%
X151500000Y-139300000D03*
%TD*%
%TO.C,TP91*%
X151500000Y-63100000D03*
%TD*%
%TO.C,TP56*%
X113400000Y-126600000D03*
%TD*%
%TO.C,TP42*%
X113400000Y-88500000D03*
%TD*%
%TO.C,TP39*%
X113400000Y-78300000D03*
%TD*%
%TO.C,TP84*%
X148400000Y-124100000D03*
%TD*%
%TO.C,TP63*%
X148400000Y-65600000D03*
%TD*%
%TO.C,TP97*%
X151500000Y-80900000D03*
%TD*%
%TO.C,TP81*%
X148400000Y-116500000D03*
%TD*%
%TO.C,TP106*%
X151500000Y-106300000D03*
%TD*%
%TO.C,TP54*%
X113400000Y-121500000D03*
%TD*%
%TO.C,TP4*%
X110200000Y-68200000D03*
%TD*%
%TO.C,TP95*%
X151500000Y-75800000D03*
%TD*%
%TO.C,TP60*%
X113400000Y-136800000D03*
%TD*%
%TO.C,TP64*%
X148400000Y-68200000D03*
%TD*%
%TO.C,TP90*%
X148400000Y-60600000D03*
%TD*%
%TO.C,TP5*%
X110200000Y-70700000D03*
%TD*%
%TO.C,TP50*%
X113400000Y-111300000D03*
%TD*%
%TO.C,TP27*%
X110200000Y-126600000D03*
%TD*%
%TO.C,TP17*%
X110200000Y-101200000D03*
%TD*%
%TO.C,TP83*%
X148400000Y-121500000D03*
%TD*%
%TO.C,TP96*%
X151500000Y-78400000D03*
%TD*%
%TO.C,TP44*%
X113400000Y-93500000D03*
%TD*%
%TO.C,TP40*%
X113400000Y-80900000D03*
%TD*%
%TO.C,TP111*%
X151500000Y-119000000D03*
%TD*%
%TO.C,TP102*%
X151500000Y-93600000D03*
%TD*%
%TO.C,TP87*%
X148400000Y-131700000D03*
%TD*%
%TO.C,TP112*%
X151500000Y-121500000D03*
%TD*%
%TO.C,TP16*%
X110200000Y-98700000D03*
%TD*%
%TO.C,TP11*%
X110300000Y-86000000D03*
%TD*%
%TO.C,TP103*%
X151500000Y-98600000D03*
%TD*%
%TO.C,TP110*%
X151500000Y-116500000D03*
%TD*%
%TO.C,TP100*%
X151500000Y-88500000D03*
%TD*%
%TO.C,TP36*%
X113400000Y-70700000D03*
%TD*%
%TO.C,TP127*%
X110200000Y-139300000D03*
%TD*%
%TO.C,TP30*%
X110200000Y-134200000D03*
%TD*%
%TO.C,TP117*%
X151500000Y-134200000D03*
%TD*%
%TO.C,TP128*%
X151500000Y-96100000D03*
%TD*%
%TO.C,TP93*%
X151500000Y-68200000D03*
%TD*%
%TO.C,TP58*%
X113400000Y-131700000D03*
%TD*%
%TO.C,TP76*%
X148400000Y-103800000D03*
%TD*%
%TO.C,TP120*%
X113400000Y-86000000D03*
%TD*%
%TO.C,TP115*%
X151500000Y-129100000D03*
%TD*%
%TO.C,TP46*%
X113400000Y-101200000D03*
%TD*%
%TO.C,TP26*%
X110200000Y-124000000D03*
%TD*%
%TO.C,TP126*%
X113400000Y-139300000D03*
%TD*%
%TO.C,TP61*%
X151500000Y-60600000D03*
%TD*%
%TO.C,TP89*%
X148400000Y-136800000D03*
%TD*%
%TO.C,TP37*%
X113400000Y-73300000D03*
%TD*%
%TO.C,TP69*%
X148400000Y-83500000D03*
%TD*%
%TO.C,TP49*%
X113400000Y-108800000D03*
%TD*%
%TO.C,TP51*%
X113400000Y-113900000D03*
%TD*%
%TO.C,TP1*%
X110200000Y-60400000D03*
%TD*%
%TO.C,TP101*%
X151500000Y-91000000D03*
%TD*%
%TO.C,TP9*%
X110200000Y-80900000D03*
%TD*%
%TO.C,TP28*%
X110200000Y-129100000D03*
%TD*%
%TO.C,TP116*%
X151500000Y-131700000D03*
%TD*%
%TO.C,TP104*%
X151500000Y-101200000D03*
%TD*%
%TO.C,TP55*%
X113400000Y-124000000D03*
%TD*%
%TO.C,TP92*%
X151500000Y-65600000D03*
%TD*%
D11*
%TO.C,BT1*%
X130400000Y-74445000D03*
X130400000Y-130055000D03*
D12*
X130400000Y-65800000D03*
D13*
X130400000Y-137800000D03*
%TD*%
D10*
%TO.C,TP82*%
X148400000Y-119100000D03*
%TD*%
%TO.C,TP6*%
X110200000Y-73300000D03*
%TD*%
%TO.C,TP118*%
X151500000Y-136800000D03*
%TD*%
%TO.C,TP13*%
X110200000Y-91000000D03*
%TD*%
D14*
%TO.C,J1*%
X104110000Y-60560000D03*
D10*
X106650000Y-60560000D03*
X104110000Y-63100000D03*
X106650000Y-63100000D03*
X104110000Y-65640000D03*
X106650000Y-65640000D03*
X104110000Y-68180000D03*
X106650000Y-68180000D03*
X104110000Y-70720000D03*
X106650000Y-70720000D03*
X104110000Y-73260000D03*
X106650000Y-73260000D03*
X104110000Y-75800000D03*
X106650000Y-75800000D03*
X104110000Y-78340000D03*
X106650000Y-78340000D03*
X104110000Y-80880000D03*
X106650000Y-80880000D03*
X104110000Y-83420000D03*
X106650000Y-83420000D03*
X104110000Y-85960000D03*
X106650000Y-85960000D03*
X104110000Y-88500000D03*
X106650000Y-88500000D03*
X104110000Y-91040000D03*
X106650000Y-91040000D03*
X104110000Y-93580000D03*
X106650000Y-93580000D03*
X104110000Y-96120000D03*
X106650000Y-96120000D03*
X104110000Y-98660000D03*
X106650000Y-98660000D03*
X104110000Y-101200000D03*
X106650000Y-101200000D03*
X104110000Y-103740000D03*
X106650000Y-103740000D03*
X104110000Y-106280000D03*
X106650000Y-106280000D03*
X104110000Y-108820000D03*
X106650000Y-108820000D03*
X104110000Y-111360000D03*
X106650000Y-111360000D03*
X104110000Y-113900000D03*
X106650000Y-113900000D03*
X104110000Y-116440000D03*
X106650000Y-116440000D03*
X104110000Y-118980000D03*
X106650000Y-118980000D03*
X104110000Y-121520000D03*
X106650000Y-121520000D03*
X104110000Y-124060000D03*
X106650000Y-124060000D03*
X104110000Y-126600000D03*
X106650000Y-126600000D03*
X104110000Y-129140000D03*
X106650000Y-129140000D03*
X104110000Y-131680000D03*
X106650000Y-131680000D03*
X104110000Y-134220000D03*
X106650000Y-134220000D03*
X104110000Y-136760000D03*
X106650000Y-136760000D03*
X104110000Y-139300000D03*
X106650000Y-139300000D03*
%TD*%
D14*
%TO.C,J2*%
X154920000Y-60550000D03*
D10*
X157460000Y-60550000D03*
X154920000Y-63090000D03*
X157460000Y-63090000D03*
X154920000Y-65630000D03*
X157460000Y-65630000D03*
X154920000Y-68170000D03*
X157460000Y-68170000D03*
X154920000Y-70710000D03*
X157460000Y-70710000D03*
X154920000Y-73250000D03*
X157460000Y-73250000D03*
X154920000Y-75790000D03*
X157460000Y-75790000D03*
X154920000Y-78330000D03*
X157460000Y-78330000D03*
X154920000Y-80870000D03*
X157460000Y-80870000D03*
X154920000Y-83410000D03*
X157460000Y-83410000D03*
X154920000Y-85950000D03*
X157460000Y-85950000D03*
X154920000Y-88490000D03*
X157460000Y-88490000D03*
X154920000Y-91030000D03*
X157460000Y-91030000D03*
X154920000Y-93570000D03*
X157460000Y-93570000D03*
X154920000Y-96110000D03*
X157460000Y-96110000D03*
X154920000Y-98650000D03*
X157460000Y-98650000D03*
X154920000Y-101190000D03*
X157460000Y-101190000D03*
X154920000Y-103730000D03*
X157460000Y-103730000D03*
X154920000Y-106270000D03*
X157460000Y-106270000D03*
X154920000Y-108810000D03*
X157460000Y-108810000D03*
X154920000Y-111350000D03*
X157460000Y-111350000D03*
X154920000Y-113890000D03*
X157460000Y-113890000D03*
X154920000Y-116430000D03*
X157460000Y-116430000D03*
X154920000Y-118970000D03*
X157460000Y-118970000D03*
X154920000Y-121510000D03*
X157460000Y-121510000D03*
X154920000Y-124050000D03*
X157460000Y-124050000D03*
X154920000Y-126590000D03*
X157460000Y-126590000D03*
X154920000Y-129130000D03*
X157460000Y-129130000D03*
X154920000Y-131670000D03*
X157460000Y-131670000D03*
X154920000Y-134210000D03*
X157460000Y-134210000D03*
X154920000Y-136750000D03*
X157460000Y-136750000D03*
X154920000Y-139290000D03*
X157460000Y-139290000D03*
%TD*%
M02*
