M48
; DRILL file {KiCad 6.0.5-a6ca702e91~116~ubuntu20.04.1} date Sun 15 May 2022 01:38:22 PM CEST
; FORMAT={-:-/ absolute / metric / decimal}
; #@! TF.CreationDate,2022-05-15T13:38:22+02:00
; #@! TF.GenerationSoftware,Kicad,Pcbnew,6.0.5-a6ca702e91~116~ubuntu20.04.1
; #@! TF.FileFunction,Plated,1,2,PTH
FMAT,2
METRIC
; #@! TA.AperFunction,Plated,PTH,ViaDrill
T1C0.400
; #@! TA.AperFunction,Plated,PTH,ComponentDrill
T2C1.000
; #@! TA.AperFunction,Plated,PTH,ComponentDrill
T3C2.000
%
G90
G05
T1
X119.2Y-131.0
X120.1Y-124.9
X120.599Y-130.275
X121.25Y-122.25
X121.3Y-136.9
X122.7Y-129.45
X123.8Y-129.5
X124.65Y-131.549
X124.95Y-122.7
X127.8Y-122.2
T2
X104.11Y-60.56
X104.11Y-63.1
X104.11Y-65.64
X104.11Y-68.18
X104.11Y-70.72
X104.11Y-73.26
X104.11Y-75.8
X104.11Y-78.34
X104.11Y-80.88
X104.11Y-83.42
X104.11Y-85.96
X104.11Y-88.5
X104.11Y-91.04
X104.11Y-93.58
X104.11Y-96.12
X104.11Y-98.66
X104.11Y-101.2
X104.11Y-103.74
X104.11Y-106.28
X104.11Y-108.82
X104.11Y-111.36
X104.11Y-113.9
X104.11Y-116.44
X104.11Y-118.98
X104.11Y-121.52
X104.11Y-124.06
X104.11Y-126.6
X104.11Y-129.14
X104.11Y-131.68
X104.11Y-134.22
X104.11Y-136.76
X104.11Y-139.3
X106.65Y-60.56
X106.65Y-63.1
X106.65Y-65.64
X106.65Y-68.18
X106.65Y-70.72
X106.65Y-73.26
X106.65Y-75.8
X106.65Y-78.34
X106.65Y-80.88
X106.65Y-83.42
X106.65Y-85.96
X106.65Y-88.5
X106.65Y-91.04
X106.65Y-93.58
X106.65Y-96.12
X106.65Y-98.66
X106.65Y-101.2
X106.65Y-103.74
X106.65Y-106.28
X106.65Y-108.82
X106.65Y-111.36
X106.65Y-113.9
X106.65Y-116.44
X106.65Y-118.98
X106.65Y-121.52
X106.65Y-124.06
X106.65Y-126.6
X106.65Y-129.14
X106.65Y-131.68
X106.65Y-134.22
X106.65Y-136.76
X106.65Y-139.3
X110.2Y-60.4
X110.2Y-63.1
X110.2Y-65.6
X110.2Y-68.2
X110.2Y-70.7
X110.2Y-73.3
X110.2Y-75.8
X110.2Y-78.3
X110.2Y-80.9
X110.2Y-83.4
X110.2Y-88.5
X110.2Y-91.0
X110.2Y-93.6
X110.2Y-96.1
X110.2Y-98.7
X110.2Y-101.2
X110.2Y-103.7
X110.2Y-106.3
X110.2Y-108.8
X110.2Y-111.4
X110.2Y-113.9
X110.2Y-116.4
X110.2Y-119.0
X110.2Y-121.5
X110.2Y-124.0
X110.2Y-126.6
X110.2Y-129.1
X110.2Y-131.7
X110.2Y-134.2
X110.2Y-136.8
X110.2Y-139.3
X110.3Y-86.0
X113.4Y-60.4
X113.4Y-63.1
X113.4Y-65.6
X113.4Y-68.2
X113.4Y-70.7
X113.4Y-73.3
X113.4Y-75.8
X113.4Y-78.3
X113.4Y-80.9
X113.4Y-83.4
X113.4Y-86.0
X113.4Y-88.5
X113.4Y-91.0
X113.4Y-93.5
X113.4Y-96.1
X113.4Y-98.7
X113.4Y-101.2
X113.4Y-103.7
X113.4Y-106.3
X113.4Y-108.8
X113.4Y-111.3
X113.4Y-113.9
X113.4Y-116.4
X113.4Y-119.0
X113.4Y-121.5
X113.4Y-124.0
X113.4Y-126.6
X113.4Y-129.1
X113.4Y-131.7
X113.4Y-134.2
X113.4Y-136.8
X113.4Y-139.3
X148.4Y-60.6
X148.4Y-63.0
X148.4Y-65.6
X148.4Y-68.2
X148.4Y-70.7
X148.4Y-73.3
X148.4Y-75.8
X148.4Y-78.4
X148.4Y-80.9
X148.4Y-83.5
X148.4Y-86.0
X148.4Y-88.7
X148.4Y-91.2
X148.4Y-93.6
X148.4Y-96.1
X148.4Y-98.6
X148.4Y-101.2
X148.4Y-103.8
X148.4Y-106.3
X148.4Y-108.8
X148.4Y-111.3
X148.4Y-113.9
X148.4Y-116.5
X148.4Y-119.1
X148.4Y-121.5
X148.4Y-124.1
X148.4Y-126.6
X148.4Y-129.1
X148.4Y-131.7
X148.4Y-134.2
X148.4Y-136.8
X148.4Y-139.3
X151.5Y-60.6
X151.5Y-63.1
X151.5Y-65.6
X151.5Y-68.2
X151.5Y-70.7
X151.5Y-73.3
X151.5Y-75.8
X151.5Y-78.4
X151.5Y-80.9
X151.5Y-83.4
X151.5Y-86.0
X151.5Y-88.5
X151.5Y-91.0
X151.5Y-93.6
X151.5Y-96.1
X151.5Y-98.6
X151.5Y-101.2
X151.5Y-103.8
X151.5Y-106.3
X151.5Y-108.8
X151.5Y-111.3
X151.5Y-113.9
X151.5Y-116.5
X151.5Y-119.0
X151.5Y-121.5
X151.5Y-124.1
X151.5Y-126.6
X151.5Y-129.1
X151.5Y-131.7
X151.5Y-134.2
X151.5Y-136.8
X151.5Y-139.3
X154.92Y-60.55
X154.92Y-63.09
X154.92Y-65.63
X154.92Y-68.17
X154.92Y-70.71
X154.92Y-73.25
X154.92Y-75.79
X154.92Y-78.33
X154.92Y-80.87
X154.92Y-83.41
X154.92Y-85.95
X154.92Y-88.49
X154.92Y-91.03
X154.92Y-93.57
X154.92Y-96.11
X154.92Y-98.65
X154.92Y-101.19
X154.92Y-103.73
X154.92Y-106.27
X154.92Y-108.81
X154.92Y-111.35
X154.92Y-113.89
X154.92Y-116.43
X154.92Y-118.97
X154.92Y-121.51
X154.92Y-124.05
X154.92Y-126.59
X154.92Y-129.13
X154.92Y-131.67
X154.92Y-134.21
X154.92Y-136.75
X154.92Y-139.29
X157.46Y-60.55
X157.46Y-63.09
X157.46Y-65.63
X157.46Y-68.17
X157.46Y-70.71
X157.46Y-73.25
X157.46Y-75.79
X157.46Y-78.33
X157.46Y-80.87
X157.46Y-83.41
X157.46Y-85.95
X157.46Y-88.49
X157.46Y-91.03
X157.46Y-93.57
X157.46Y-96.11
X157.46Y-98.65
X157.46Y-101.19
X157.46Y-103.73
X157.46Y-106.27
X157.46Y-108.81
X157.46Y-111.35
X157.46Y-113.89
X157.46Y-116.43
X157.46Y-118.97
X157.46Y-121.51
X157.46Y-124.05
X157.46Y-126.59
X157.46Y-129.13
X157.46Y-131.67
X157.46Y-134.21
X157.46Y-136.75
X157.46Y-139.29
T3
X130.4Y-65.8
X130.4Y-137.8
T0
M30
